<svg width="270" height="161" viewBox="0 0 270 161" fill="none" xmlns="http://www.w3.org/2000/svg">
<path fill-rule="evenodd" clip-rule="evenodd" d="M4.80231 16.8389C4.80231 16.8389 -0.607864 43.5032 0.0565433 49.8647C0.72095 56.2262 12.8701 70.4366 12.8701 70.4366C12.8701 70.4366 25.747 98.1295 29.8283 111.675C33.9097 125.221 47.8148 142.454 47.8148 142.454C47.8148 142.454 131.087 155.367 153.851 155.367C176.615 155.367 188.115 144.701 188.115 144.701C188.115 144.701 220.228 88.888 223.044 86.1504C225.86 83.4127 241.869 77.6368 241.869 77.6368C241.869 77.6368 267.907 30.6062 269.964 18.2156L197.544 21.2064L4.80231 16.8389Z" fill="#03212B"/>
<path fill-rule="evenodd" clip-rule="evenodd" d="M4.80469 16.8391L39.0217 12.519L58.9064 9.14839C58.9064 9.14839 153.031 9.40158 180.113 10.9524C180.113 10.9524 202.672 1.83745 208.825 1.63173C214.979 1.42601 226.875 12.519 226.875 12.519L269.998 18.1526C269.998 18.1526 250.303 25.0046 235.196 24.7197L249.67 29.5937C246.931 31.6693 243.831 33.2198 240.527 34.167C234.785 35.9077 191.646 37.1895 171.16 36.9679C150.674 36.7464 141.72 29.5937 141.72 29.5937L150.943 26.0332L139.869 24.7197C139.869 24.7197 106.38 30.5748 93.5821 31.0496C80.7844 31.5243 64.3799 28.3436 64.3799 28.3436L63.146 23.976C63.146 23.976 28.4544 21.9663 4.80469 16.8391Z" fill="#216B72"/>
<path fill-rule="evenodd" clip-rule="evenodd" d="M55.0892 23.3588V41.9684L36.1853 45.1333C36.1853 45.1333 35.3627 45.4973 33.2745 50.846C31.1864 56.1947 21.5683 69.3765 21.5683 69.3765L12.8203 70.3418L19.8282 86.0398C19.8282 86.0398 29.9367 86.1347 33.9548 88.635C37.9728 91.1353 46.879 98.5886 46.879 98.5886L52.2259 113.242C52.2259 113.242 57.5729 86.1347 57.9367 81.8621C58.3006 77.5895 63.4893 59.1855 62.6825 56.0839C61.8757 52.9823 62.9988 40.8607 62.9988 40.8607L64.4384 28.2011C64.4384 28.2011 91.8056 31.904 94.6689 32.9484C97.5322 33.9928 98.7661 45.4182 98.7661 45.4182L108.084 66.9395L97.6271 98.3987L101.677 125.047L102.958 145.081L117.812 161.001H129.582C129.582 161.001 139.2 108.938 139.912 105.725C140.624 102.513 137.381 95.0439 137.381 95.0439L142.127 62.3188L141.668 29.5303L150.938 26.0331L139.864 24.7197C139.864 24.7197 105.062 29.9259 99.3356 30.464C93.6091 31.002 64.3593 25.6058 64.3593 25.6058L81.9028 21.3174L55.0892 23.3588Z" fill="url(#paint0_linear_452_2784)"/>
<path fill-rule="evenodd" clip-rule="evenodd" d="M205.236 36.984L228.68 40.9084L224.947 49.8651L214.775 74.4248L202.515 86.0875L188.752 91.183L178.074 98.6364H187.328L186.617 108.558L181.649 132.295L181.396 149.038L187.724 148.183C187.724 148.183 212.813 102.703 223.08 86.0559C223.08 86.0559 240.133 80.7863 241.905 77.5423C243.676 74.2982 267.785 29.2299 270 18.1211L235.197 24.6883L249.672 29.5622C249.672 29.5622 239.484 34.0881 232.714 35.1641C225.943 36.2402 205.236 36.984 205.236 36.984Z" fill="url(#paint1_linear_452_2784)"/>
<path fill-rule="evenodd" clip-rule="evenodd" d="M180.109 10.9518L172.531 14.6864C172.531 14.6864 178.068 15.9365 181.263 16.8385C184.459 17.7405 202.082 16.3005 205.23 15.3985C208.378 14.4965 219.941 10.9518 219.941 10.9518L220.558 7.32799C220.558 7.32799 211.921 -0.410199 209.311 0.0170639C206.701 0.444327 184.68 8.70473 180.109 10.9518Z" fill="#439CA5"/>
<path fill-rule="evenodd" clip-rule="evenodd" d="M227.899 12.661L220.543 16.8387L209.058 17.1077H184.602C184.602 17.1077 203.426 15.5252 206.242 14.8923C209.058 14.2593 219.942 10.9519 219.942 10.9519L220.559 7.32812L227.899 12.661Z" fill="url(#paint2_linear_452_2784)"/>
<path fill-rule="evenodd" clip-rule="evenodd" d="M55.0898 41.9688L62.9837 60.5152L64.3441 25.5746L81.9034 21.2861L55.0898 23.3591V41.9688Z" fill="url(#paint3_linear_452_2784)"/>
<path fill-rule="evenodd" clip-rule="evenodd" d="M235.082 24.7195L249.557 29.5935L243.229 74.915C243.229 74.915 262.687 37.8222 269.884 18.1523L235.082 24.7195Z" fill="url(#paint4_linear_452_2784)"/>
<path fill-rule="evenodd" clip-rule="evenodd" d="M99.3789 30.464L117.808 48.3458L129.214 60.5149L131.539 70.9116L141.759 64.3919L141.585 29.5937L150.981 26.0332L139.908 24.7197L99.3789 30.464Z" fill="url(#paint5_linear_452_2784)"/>
<defs>
<linearGradient id="paint0_linear_452_2784" x1="12.8203" y1="91.1827" x2="150.985" y2="91.1827" gradientUnits="userSpaceOnUse">
<stop stop-color="#00101C"/>
<stop offset="0.04" stop-color="#001D22"/>
<stop offset="0.42" stop-color="#001D28"/>
<stop offset="1" stop-color="#040021"/>
<stop offset="1" stop-color="#010D1B"/>
</linearGradient>
<linearGradient id="paint1_linear_452_2784" x1="178.074" y1="83.6189" x2="269.968" y2="83.6189" gradientUnits="userSpaceOnUse">
<stop stop-color="#010D1B"/>
<stop offset="0.04" stop-color="#00081A"/>
<stop offset="0.42" stop-color="#01101D"/>
<stop offset="1" stop-color="#051B40"/>
</linearGradient>
<linearGradient id="paint2_linear_452_2784" x1="184.602" y1="12.2179" x2="227.899" y2="12.2179" gradientUnits="userSpaceOnUse">
<stop stop-color="#003838"/>
<stop offset="1" stop-color="#092B33"/>
</linearGradient>
<linearGradient id="paint3_linear_452_2784" x1="68.4887" y1="60.5152" x2="68.4887" y2="21.2861" gradientUnits="userSpaceOnUse">
<stop stop-color="#03212B"/>
<stop offset="1" stop-color="#01232B"/>
</linearGradient>
<linearGradient id="paint4_linear_452_2784" x1="252.515" y1="74.915" x2="252.515" y2="18.1523" gradientUnits="userSpaceOnUse">
<stop stop-color="#001C25"/>
<stop offset="1" stop-color="#021725"/>
</linearGradient>
<linearGradient id="paint5_linear_452_2784" x1="125.18" y1="70.9116" x2="125.18" y2="24.7197" gradientUnits="userSpaceOnUse">
<stop stop-color="#073540"/>
<stop offset="1" stop-color="#012129"/>
</linearGradient>
</defs>
</svg>
