<svg width="153" height="92" viewBox="0 0 153 92" fill="none" xmlns="http://www.w3.org/2000/svg">
<path fill-rule="evenodd" clip-rule="evenodd" d="M2.72134 9.62207C2.72134 9.62207 -0.34446 24.8588 0.0320416 28.494C0.408544 32.1291 7.29313 40.2493 7.29313 40.2493C7.29313 40.2493 14.5901 56.0739 16.9029 63.8143C19.2157 71.5548 27.0954 81.4022 27.0954 81.4022C27.0954 81.4022 74.2836 88.781 87.1833 88.781C100.083 88.781 106.6 82.6862 106.6 82.6862C106.6 82.6862 124.798 50.793 126.393 49.2286C127.989 47.6643 137.061 44.3637 137.061 44.3637C137.061 44.3637 151.816 17.4891 152.981 10.4088L111.943 12.1178L2.72134 9.62207Z" fill="#03212B"/>
<path fill-rule="evenodd" clip-rule="evenodd" d="M2.72266 9.62221L22.1125 7.15359L33.3807 5.22751C33.3807 5.22751 86.7185 5.37219 102.065 6.25837C102.065 6.25837 114.849 1.04983 118.336 0.932279C121.823 0.814725 128.564 7.15359 128.564 7.15359L153.001 10.3728C153.001 10.3728 141.84 14.2882 133.279 14.1254L141.482 16.9105C139.929 18.0966 138.172 18.9826 136.3 19.5239C133.046 20.5185 108.6 21.251 96.9916 21.1244C85.3828 20.9978 80.3089 16.9105 80.3089 16.9105L85.5352 14.876L79.2601 14.1254C79.2601 14.1254 60.2826 17.4712 53.0305 17.7425C45.7783 18.0137 36.4824 16.1962 36.4824 16.1962L35.7831 13.7004C35.7831 13.7004 16.1243 12.552 2.72266 9.62221Z" fill="#216B72"/>
<path fill-rule="evenodd" clip-rule="evenodd" d="M31.2183 13.3472V23.9812L20.506 25.7898C20.506 25.7898 20.0398 25.9977 18.8565 29.0541C17.6732 32.1105 12.2229 39.643 12.2229 39.643L7.26562 40.1946L11.2368 49.1649C11.2368 49.1649 16.965 49.2191 19.242 50.6479C21.5189 52.0766 26.5658 56.3357 26.5658 56.3357L29.5958 64.7091C29.5958 64.7091 32.6257 49.2191 32.8319 46.7776C33.0381 44.3361 35.9784 33.8196 35.5212 32.0472C35.064 30.2749 35.7005 23.3483 35.7005 23.3483L36.5162 16.1142C36.5162 16.1142 52.0245 18.2302 53.6471 18.827C55.2696 19.4238 55.9689 25.9525 55.9689 25.9525L61.2488 38.2505L55.3234 56.2271L57.6183 71.4549L58.3444 82.9028L66.7619 91.9996H73.4314C73.4314 91.9996 78.8817 62.2495 79.2851 60.4139C79.6885 58.5782 77.8508 54.3101 77.8508 54.3101L80.5401 35.61L80.2801 16.8738L85.5332 14.8754L79.2582 14.1248C79.2582 14.1248 59.5366 17.0998 56.2916 17.4073C53.0465 17.7147 36.4714 14.6312 36.4714 14.6312L46.4128 12.1807L31.2183 13.3472Z" fill="url(#paint0_linear_452_2774)"/>
<path fill-rule="evenodd" clip-rule="evenodd" d="M116.302 21.1333L129.587 23.3758L127.471 28.4939L121.707 42.5281L114.76 49.1924L106.961 52.1042L100.91 56.3632H106.154L105.751 62.0329L102.936 75.5968L102.793 85.1639L106.378 84.6756C106.378 84.6756 120.596 58.6872 126.414 49.1744C126.414 49.1744 136.077 46.1632 137.081 44.3094C138.085 42.4557 151.747 16.7024 153.002 10.3545L133.28 14.1072L141.483 16.8923C141.483 16.8923 135.71 19.4785 131.873 20.0934C128.036 20.7083 116.302 21.1333 116.302 21.1333Z" fill="url(#paint1_linear_452_2774)"/>
<path fill-rule="evenodd" clip-rule="evenodd" d="M102.063 6.25818L97.7695 8.39223C97.7695 8.39223 100.907 9.1066 102.718 9.62203C104.529 10.1375 114.515 9.31458 116.299 8.79916C118.083 8.28373 124.636 6.25818 124.636 6.25818L124.985 4.18743C124.985 4.18743 120.091 -0.234399 118.612 0.00975079C117.132 0.253901 104.654 4.97413 102.063 6.25818Z" fill="#439CA5"/>
<path fill-rule="evenodd" clip-rule="evenodd" d="M129.145 7.23486L124.976 9.6221L118.468 9.77582H104.609C104.609 9.77582 115.277 8.87157 116.873 8.50987C118.468 8.14816 124.636 6.25826 124.636 6.25826L124.985 4.1875L129.145 7.23486Z" fill="url(#paint2_linear_452_2774)"/>
<path fill-rule="evenodd" clip-rule="evenodd" d="M31.2188 23.9818L35.692 34.5797L36.4629 14.6136L46.4133 12.1631L31.2188 13.3477V23.9818Z" fill="url(#paint3_linear_452_2774)"/>
<path fill-rule="evenodd" clip-rule="evenodd" d="M133.215 14.1247L141.417 16.9099L137.831 42.8079C137.831 42.8079 148.858 21.612 152.936 10.3721L133.215 14.1247Z" fill="url(#paint4_linear_452_2774)"/>
<path fill-rule="evenodd" clip-rule="evenodd" d="M56.3164 17.4084L66.7599 27.6266L73.2232 34.5804L74.5409 40.5213L80.3318 36.7958L80.2332 16.9111L85.5581 14.8765L79.2831 14.126L56.3164 17.4084Z" fill="url(#paint5_linear_452_2774)"/>
<defs>
<linearGradient id="paint0_linear_452_2774" x1="7.26563" y1="52.1037" x2="85.5601" y2="52.1037" gradientUnits="userSpaceOnUse">
<stop stop-color="#00101C"/>
<stop offset="0.04" stop-color="#001D22"/>
<stop offset="0.42" stop-color="#001D28"/>
<stop offset="1" stop-color="#040021"/>
<stop offset="1" stop-color="#010D1B"/>
</linearGradient>
<linearGradient id="paint1_linear_452_2774" x1="100.91" y1="47.7818" x2="152.984" y2="47.7818" gradientUnits="userSpaceOnUse">
<stop stop-color="#010D1B"/>
<stop offset="0.04" stop-color="#00081A"/>
<stop offset="0.42" stop-color="#01101D"/>
<stop offset="1" stop-color="#051B40"/>
</linearGradient>
<linearGradient id="paint2_linear_452_2774" x1="104.609" y1="6.98166" x2="129.145" y2="6.98166" gradientUnits="userSpaceOnUse">
<stop stop-color="#003838"/>
<stop offset="1" stop-color="#092B33"/>
</linearGradient>
<linearGradient id="paint3_linear_452_2774" x1="38.8115" y1="34.5797" x2="38.8115" y2="12.1631" gradientUnits="userSpaceOnUse">
<stop stop-color="#03212B"/>
<stop offset="1" stop-color="#01232B"/>
</linearGradient>
<linearGradient id="paint4_linear_452_2774" x1="143.094" y1="42.8079" x2="143.094" y2="10.3721" gradientUnits="userSpaceOnUse">
<stop stop-color="#001C25"/>
<stop offset="1" stop-color="#021725"/>
</linearGradient>
<linearGradient id="paint5_linear_452_2774" x1="70.9373" y1="40.5213" x2="70.9373" y2="14.126" gradientUnits="userSpaceOnUse">
<stop stop-color="#073540"/>
<stop offset="1" stop-color="#012129"/>
</linearGradient>
</defs>
</svg>
