<svg width="1440" height="817" viewBox="0 0 1440 817" fill="none" xmlns="http://www.w3.org/2000/svg">
<path d="M200 728.931L117.98 736.999L105.263 642.323C104.03 633.02 107.161 623.678 113.968 616.349C120.775 609.019 130.701 604.302 141.568 603.232V603.232C146.953 602.7 152.407 603.082 157.62 604.355C162.832 605.629 167.7 607.769 171.946 610.654C176.191 613.539 179.731 617.112 182.363 621.168C184.994 625.224 186.666 629.685 187.283 634.294L200 728.931Z" fill="#070E0D"/>
<path d="M125.165 714.999L115.235 640.692C114.742 637.347 115.026 633.951 116.069 630.701C117.112 627.451 118.895 624.411 121.314 621.758C123.733 619.105 126.739 616.891 130.16 615.244C133.581 613.598 137.347 612.552 141.241 612.166C145.135 611.781 149.079 612.064 152.845 612.999C156.611 613.934 160.124 615.502 163.18 617.613C166.236 619.724 168.775 622.336 170.649 625.297C172.524 628.259 173.697 631.51 174.1 634.864L184 709.171L125.165 714.999Z" fill="#193E3B"/>
<path d="M149.192 583.857L137.85 585.08L136.522 575.999L130 576.703L131.342 585.785L120 586.995L120.808 592.568L132.15 591.357L134.444 606.999L140.967 606.295L138.658 590.653L150 589.442L149.192 583.857Z" fill="#040707"/>
<path d="M90.0848 682.57C90.0848 682.57 637.515 646.604 1293.92 687.684L1439 794.999H-1L90.0848 682.57Z" fill="#12413E"/>
<path d="M432.602 593.171L426.979 593.287C426.45 584.322 422.047 575.843 414.621 569.491C407.195 563.138 397.274 559.363 386.778 558.896L385.856 536.691L403.471 536.158L403.105 527.526L385.49 528.058L384.908 513.999L374.8 514.3L375.382 528.359L357.768 528.892L358.134 537.524L375.748 536.992L376.656 559.07C366.073 559.857 356.22 564.002 349.039 570.687C341.858 577.372 337.871 586.113 337.864 595.185L332.241 595.3C329.999 595.352 327.873 596.16 326.329 597.549C324.784 598.937 323.948 600.792 324.003 602.706L327.742 730.999L445 728.5L441.274 600.207C441.246 599.258 440.999 598.324 440.548 597.457C440.097 596.59 439.45 595.808 438.645 595.154C437.84 594.501 436.891 593.99 435.855 593.649C434.818 593.309 433.713 593.146 432.602 593.171V593.171Z" fill="#0B1616"/>
<path d="M339.234 717.999L336 606.466C335.993 606.137 336.137 605.82 336.401 605.582C336.665 605.345 337.027 605.207 337.409 605.198L348.56 604.956V599.756C348.557 592.531 351.845 585.592 357.72 580.421C363.595 575.251 371.591 572.261 379.998 572.089L383.823 572.009C392.234 571.819 400.398 574.466 406.567 579.382C412.736 584.299 416.42 591.095 416.831 598.315L417.14 603.515L428.277 603.272C428.649 603.265 429.011 603.381 429.288 603.595C429.564 603.809 429.736 604.106 429.766 604.425L433 715.959L339.234 717.999Z" fill="#143432"/>
<path d="M923.829 748.999L798 732.235L824.422 587.085C825.707 580.018 828.607 573.236 832.956 567.128C837.305 561.02 843.018 555.704 849.768 551.485C856.519 547.265 864.175 544.225 872.3 542.537C880.425 540.849 888.858 540.547 897.119 541.648C913.797 543.871 928.76 551.667 938.723 563.322C948.685 574.978 952.832 589.539 950.251 603.808L923.829 748.999Z" fill="#0A1413"/>
<path d="M815 716.33L837.03 596.86C839.02 586.063 846.007 576.376 856.453 569.93C866.899 563.485 879.949 560.808 892.731 562.49C905.513 564.172 916.98 570.074 924.611 578.898C932.241 587.722 935.41 598.745 933.419 609.543L911.389 728.999L815 716.33Z" fill="#153C39"/>
<path d="M928 510.528L909.181 508.221L911.731 493.324L900.934 491.999L898.384 506.883L879.566 504.575L878 513.724L896.819 516.031L892.429 541.675L903.226 542.999L907.616 517.356L926.434 519.663L928 510.528Z" fill="black"/>
<path d="M687.641 716.281C682.898 723.111 674.374 730.7 663.315 734.658C663.142 728.628 661.51 723.121 662.336 716.893C663.285 709.762 664.984 702.662 667.424 695.624C661.024 705.658 654.586 715.682 648.109 725.697C646.55 722.587 645.522 719.413 645.037 716.212C641.927 719.074 638.81 721.94 635.687 724.808C632.128 720 630.419 714.881 630.657 709.738C630.484 714.258 623.285 720.318 619.905 724.354C618.408 720.874 616.885 717.39 615.336 713.903C611.253 716.534 607.183 719.166 603.125 721.798C602.645 712.6 602.914 703.234 603.97 694.006C597.366 702.109 591.203 710.369 585.347 718.679C583.816 708.787 581.188 698.948 577.475 689.209C578.032 697.411 576.131 707.389 570.448 715.136C563.184 704.578 557.296 693.784 552.823 682.824C553.994 686.209 550.558 692.397 548.599 695.585C545.547 700.52 540.92 705.257 537.08 709.994C536.709 702.158 536.197 694.302 535.544 686.426C533.393 693.502 528.613 699.503 524.024 706.027C522.898 700.763 521.695 695.499 520.415 690.236C516.383 693.887 512.357 697.546 508.338 701.21C508.838 692.723 509.183 684.225 509.375 675.718C498.272 683.736 488.357 692.172 479.712 700.954C481.943 683.387 479.749 665.746 473.184 648.468C475.104 664.605 470.535 681.699 458.555 696.749C457.518 693.256 456.436 689.755 455.31 686.248C454.133 689.011 451.533 691.561 447.784 693.631C448.27 678.129 448.379 662.637 448.11 647.155C441.254 662.084 432.735 676.797 422.594 691.223C419.177 688.15 415.715 685.094 412.207 682.054L408.176 690.759C407.772 677.978 408.176 665.167 409.347 652.357C408.848 657.528 401.782 663.075 398.653 667.842C395.331 672.944 390.09 677.228 384.887 681.876C383.965 671.546 382.8 661.226 381.393 650.916C377.873 659.844 374.282 668.77 370.622 677.691C365.222 671.511 361.706 664.94 360.197 658.209C358.68 665.207 357.566 672.224 354.59 679.083C354.211 677.051 352.966 675.086 350.942 673.329C348.601 675.794 347.293 678.484 347.103 681.225C345.304 680.088 344.125 678.725 343.685 677.277C340.863 678.777 340.748 681.56 338.828 683.514C336.566 676.499 335.475 669.397 335.564 662.285C334.077 668.777 331.716 675.207 328.498 681.531C323.481 667.436 321.338 653.11 322.105 638.786C315.117 650.274 307.821 661.318 299.316 672.471C296.669 668.818 295.103 664.982 294.669 661.091C292.596 664.855 290.535 668.612 288.487 672.362C283.751 669.857 280.807 666.6 280.135 663.124C280.135 662.897 279.982 662.631 279.598 662.562C279.214 662.493 278.772 662.798 278.58 663.055C274.337 668.691 268.117 673.635 263.509 679.103C261.186 667.161 259.362 655.199 257.346 643.227C251.74 654.084 245.442 664.654 238.895 675.333C237.782 670.013 236.188 664.713 234.134 659.472C230.678 664.407 227.241 669.342 223.824 674.277C221.52 670.072 219.254 665.858 216.912 661.644C212.65 653.926 212.131 647.165 210.365 639.201C209.149 650.57 207.869 661.93 206.525 673.28C205.245 669.477 203.965 665.68 202.685 661.89C200.032 666.151 196.766 670.305 192.913 674.316C190.338 670.754 186.858 667.382 182.565 664.289C183.621 664.97 175.691 673.408 174.155 674.158C170.757 672.648 168.261 669.895 165.669 667.842C161.919 670.776 158.201 673.714 154.514 676.655C153.267 663.64 150.29 650.684 145.606 637.878C139.635 650.274 133.395 662.473 126.599 674.741C123.744 670.872 120.826 667.006 117.844 663.144C115.367 666.105 112.929 669.115 110.49 672.115C108.647 670.556 106.798 669.003 104.942 667.457C103.403 669.545 101.535 671.565 99.3548 673.497C92.251 667.575 90.9839 657.035 90.8111 649.899C89.2559 655.821 86.28 661.585 83.9761 667.427C82.7666 656.679 80.981 646.198 78.5235 635.569C77.8131 643.592 77.0452 651.646 74.2229 659.561C70.5558 649.948 66.044 640.395 61.2057 630.999C62.4153 633.397 58.8634 638.589 58.0379 641.105C56.8475 644.718 55.2156 648.35 54.198 651.962C52.4893 658.614 49.3598 665.128 46.5183 671.701C45.5967 663.065 44.176 654.4 42.2752 645.843C43.9648 653.649 42.0832 663.154 39.6833 670.951C35.8376 661.228 30.4765 651.679 23.6519 642.398C25.9366 646.129 24.6695 652.682 24.9767 656.334C25.2071 659.078 27.9526 668.316 23.9207 669.796C25.8406 669.095 13.3803 657.538 12.4011 656.373C7.74411 650.532 5.03118 644.33 4.37581 638.026C2.34068 641.974 0.548744 645.958 -1 649.978V690.107C7.71648 689.88 16.433 689.811 25.399 689.624C56.6939 688.953 87.912 687.275 119.264 687.344C166.684 687.432 214.058 688.875 261.167 691.667C355.213 697.271 447.789 708.132 537.253 724.058C549.943 726.308 685.356 752.315 683.436 754.999L688.812 747.488C692.844 736.77 690.617 726.703 687.641 716.281Z" fill="#11110B"/>
<path d="M23.6528 541.005C23.4734 540.505 23.2553 540.015 23 539.54C23.2304 540.034 23.4224 540.511 23.6528 541.005Z" fill="#11110B"/>
<path d="M-1 674.137C-1 674.137 501.38 665.067 914 793.999H-1V674.137Z" fill="#0E6B65"/>
<path d="M1259 707.802C1256.69 696.507 1248.54 686.834 1239.43 676.924C1238.76 684.47 1234.74 693.362 1226.09 699.019C1222.37 693.085 1217.48 687.823 1214.56 681.543C1211.3 674.292 1208.79 666.955 1207.07 659.566C1206.66 670.558 1206.17 681.543 1205.6 692.521C1202.22 689.671 1199.32 686.672 1196.96 683.56C1195.55 686.903 1194.14 690.243 1192.73 693.58C1186.3 689.348 1181.55 684.509 1178.73 679.337C1181.23 683.877 1177.64 691.028 1176.66 695.578C1173.15 692.34 1169.58 689.112 1165.95 685.895C1163.39 689.139 1160.89 692.386 1158.46 695.637C1152.56 686.547 1147.29 677.181 1142.89 667.834C1141.1 676.934 1139.85 686.122 1138.91 695.291C1131.57 685.683 1123.15 676.301 1113.71 667.191C1119.11 675.262 1123.11 685.499 1122.01 694.104C1108.6 684.724 1096.4 674.901 1085.49 664.699C1088.67 667.884 1088.92 674.59 1088.84 678.061C1088.7 683.432 1086.92 688.941 1085.86 694.213C1080.87 686.458 1075.75 678.717 1070.48 670.989C1072.4 678.368 1071.29 685.093 1070.48 692.304C1066.25 687.24 1061.95 682.182 1057.57 677.132C1055.72 681.404 1053.88 685.69 1052.05 689.989C1047.54 681.464 1042.87 672.951 1038.04 664.452C1031.74 674.171 1026.85 684.119 1023.43 694.213C1015.28 676.384 1002.7 659.171 985.988 642.999C997.309 658.765 1002.96 676.489 999.923 693.342C996.809 690.045 993.67 686.732 990.505 683.402C990.954 686.337 989.872 689.28 987.372 691.928C978.684 676.419 969.65 660.98 960.27 645.61C962.262 661.544 962.468 677.524 960.885 693.471C955.683 690.959 950.442 688.46 945.163 685.974C945.547 689.079 945.912 692.175 946.297 695.271C938.34 682.618 931.17 669.816 924.789 656.866C927.345 662.088 923.597 668.734 923.309 673.947C922.982 679.545 920.33 684.639 917.869 690.078C910.873 679.931 903.633 669.842 896.15 659.813C897.918 669.249 899.616 678.691 901.243 688.14C892.213 682.821 884.835 676.815 879.37 670.337C882.003 677.537 885.021 684.698 886.117 691.987C884.525 690.028 882.125 688.269 879.082 686.834C878.209 689.666 878.497 692.56 879.928 695.33C877.449 694.478 875.458 693.3 874.161 691.918C872.239 693.896 873.738 696.636 872.989 698.841C866.615 692.208 861.343 685.31 857.228 678.219C859.587 684.921 861.032 691.7 861.552 698.505C848.297 685.259 837.765 671.336 830.126 656.965C829.953 669.476 829.204 681.622 827.339 694.054C822.537 690.851 818.689 687.298 815.922 683.511L816.441 695.696C810.233 693.945 805.376 691.152 802.679 687.784C802.506 687.576 802.237 687.319 801.814 687.319C801.391 687.319 801.122 687.685 801.084 687.962C800.2 694.242 796.932 700.127 795.567 706.299C786.207 694.776 777.327 683.155 768.274 671.553C769.1 683.234 769.081 694.747 768.87 706.408C764.628 701.271 759.932 696.257 754.781 691.364C754.256 696.804 753.743 702.25 753.243 707.703C748.496 703.876 743.729 700.028 738.924 696.201C730.14 689.188 725.642 682.542 719.184 674.896C724.681 686.396 730.082 697.908 735.387 709.434C731.915 705.847 728.391 702.27 724.816 698.703C724.733 703.341 723.981 707.969 722.567 712.55C717.911 709.406 712.462 706.596 706.364 704.192C707.825 704.707 704.903 714.35 703.846 715.379C699.579 714.389 695.466 712.055 691.679 710.433C689.68 713.934 687.72 717.442 685.798 720.957C676.879 708.197 666.276 695.765 654.064 683.748C655.486 696.992 656.428 710.146 656.966 723.39C651.841 719.988 646.651 716.598 641.397 713.222C640.706 716.572 640.033 719.931 639.379 723.301C636.637 722.035 633.882 720.779 631.114 719.533C630.837 721.863 630.194 724.179 629.192 726.456C618.621 721.679 611.144 711.383 606.781 704.301C608.703 710.433 609.164 716.654 610.298 722.826C602.783 712.312 594.806 702.165 586.08 691.967C590.116 700.068 594.114 708.208 595.96 716.526C586.657 707.525 576.527 698.723 566.187 690.128C568.801 692.323 568.32 698.04 568.993 700.691C569.935 704.469 570.454 708.336 571.664 712.095C573.894 719.018 574.625 725.942 575.605 732.984C569.589 724.517 563.073 716.12 556.115 707.901C562.419 715.408 566.167 725.16 568.378 733.29C558.522 723.917 547.162 714.985 534.415 706.586C539.623 709.553 542.449 717.129 545.121 721.026C547.043 723.716 555.154 732.479 552.021 734.586C553.501 733.597 534.299 724.033 532.685 723.024C524.59 717.929 518.21 712.172 513.81 705.992C514.657 717.495 517.363 728.942 521.902 740.214C513.893 734.036 506.173 727.771 498.741 721.422C503.673 727.417 507.533 733.631 510.273 739.986C502.816 733.805 495.281 727.504 491.456 720.502L481 767.977C481 768.392 519.442 762.863 522.997 762.042C536.856 758.848 550.829 756.692 565.283 754.08C596.036 748.512 626.059 741.955 657.255 737.108C704.467 729.777 752.432 723.797 800.93 719.196C897.743 710.057 996.202 706.369 1094.57 708.198C1108.52 708.455 1258.52 713.143 1258.17 716.11C1258.38 712.797 1258.58 711.135 1259 707.802Z" fill="#11110B"/>
<path d="M1439 675.137C1439 675.137 770.867 666.077 222 794.999H1439V675.137Z" fill="#0E6B65"/>
<path d="M1278.83 576.515L1269.66 576.161C1269.99 561.454 1263.94 547.166 1252.69 536.063C1241.44 524.959 1225.79 517.829 1208.77 516.052L1210.19 479.66L1238.91 480.489L1239.47 466.351L1210.75 465.522L1211.66 442.475L1195.18 442L1194.27 465.047L1165.55 464.206L1164.99 478.343L1193.71 479.184L1192.29 515.357C1174.96 515.62 1158.38 521.443 1145.81 531.679C1133.23 541.915 1125.59 555.82 1124.38 570.653L1115.22 570.299C1113.41 570.23 1111.6 570.468 1109.9 570.999C1108.2 571.53 1106.63 572.343 1105.3 573.392C1103.96 574.441 1102.88 575.706 1102.12 577.114C1101.35 578.522 1100.92 580.045 1100.84 581.597L1090 791.687L1281.14 799L1291.98 588.91C1292.07 587.354 1291.8 585.798 1291.19 584.332C1290.58 582.866 1289.63 581.518 1288.41 580.366C1287.19 579.214 1285.71 578.281 1284.07 577.62C1282.42 576.959 1280.64 576.584 1278.83 576.515V576.515Z" fill="#091312"/>
<path d="M1108 773.079L1117.58 587.769C1117.61 587.22 1117.89 586.704 1118.37 586.334C1118.84 585.963 1119.47 585.768 1120.11 585.791L1138.67 586.487L1139.37 577.868C1140.36 565.883 1146.77 554.7 1157.26 546.7C1167.74 538.701 1181.47 534.518 1195.51 535.044L1201.89 535.288C1215.92 535.833 1229.15 541.04 1238.75 549.799C1248.35 558.557 1253.58 570.176 1253.31 582.178L1253.12 590.821L1271.68 591.529C1272.33 591.554 1272.93 591.796 1273.36 592.201C1273.8 592.605 1274.02 593.141 1274 593.689L1264.4 779L1108 773.079Z" fill="#093633"/>
<path d="M534.813 45.8061L536.023 44.835L535.658 46.2176L537.252 46.6456L535.658 47.0571L536.023 48.4562L534.813 47.485L533.585 48.4562L533.969 47.0571L532.375 46.6456L533.969 46.2176L533.585 44.835L534.813 45.8061Z" fill="white"/>
<path d="M1098.52 23.4038L1099.73 22.4326L1099.37 23.8153L1100.96 24.2432L1099.37 24.6547L1099.73 26.0538L1098.52 25.0827L1097.3 26.0538L1097.68 24.6547L1096.09 24.2432L1097.68 23.8153L1097.3 22.4326L1098.52 23.4038Z" fill="white"/>
<path d="M1140.83 9.18228L1141.44 8.68848L1141.25 9.37979L1142.06 9.59378L1141.25 9.80775L1141.44 10.4991L1140.83 10.0217L1140.21 10.4991L1140.4 9.80775L1139.62 9.59378L1140.4 9.37979L1140.21 8.68848L1140.83 9.18228Z" fill="white"/>
<path d="M677.01 1.26529L677.624 0.771484L677.432 1.47926L678.22 1.67679L677.432 1.89076L677.624 2.58209L677.01 2.10475L676.396 2.58209L676.588 1.89076L675.781 1.67679L676.588 1.47926L676.396 0.771484L677.01 1.26529Z" fill="white"/>
<path d="M423.702 377.591L424.316 377.113L424.124 377.805L424.931 378.019L424.124 378.233L424.316 378.924L423.702 378.43L423.087 378.924L423.279 378.233L422.492 378.019L423.279 377.805L423.087 377.113L423.702 377.591Z" fill="white"/>
<path d="M460.647 376.702L461.261 376.208L461.07 376.899L461.876 377.113L461.07 377.327L461.261 378.019L460.647 377.525L460.052 378.019L460.225 377.327L459.438 377.113L460.225 376.899L460.052 376.208L460.647 376.702Z" fill="white"/>
<path d="M102.142 21.5932L103.351 20.6221L102.986 22.0047L104.58 22.4327L102.986 22.8442L103.351 24.2433L102.142 23.2557L100.913 24.2433L101.297 22.8442L99.7031 22.4327L101.297 22.0047L100.913 20.6221L102.142 21.5932Z" fill="white"/>
<path d="M1100.96 388.849L1102.19 387.861L1101.81 389.26L1103.4 389.672L1101.81 390.1L1102.19 391.483L1100.96 390.511L1099.73 391.483L1100.12 390.1L1098.52 389.672L1100.12 389.26L1099.73 387.861L1100.96 388.849Z" fill="white"/>
<path d="M453.774 403.35L454.984 402.379L454.619 403.778L456.213 404.19L454.619 404.601L454.984 406L453.774 405.029L452.546 406L452.93 404.601L451.336 404.19L452.93 403.778L452.546 402.379L453.774 403.35Z" fill="white"/>
<path d="M1297.54 49.263L1298.75 48.2754L1298.38 49.6745L1299.97 50.1025L1298.38 50.514L1298.75 51.913L1297.54 50.9255L1296.31 51.913L1296.69 50.514L1295.08 50.1025L1296.69 49.6745L1296.31 48.2754L1297.54 49.263Z" fill="white"/>
<path d="M1338.01 213.929L1339.24 212.941L1338.87 214.34L1340.47 214.768L1338.87 215.18L1339.24 216.579L1338.01 215.591L1336.8 216.579L1337.16 215.18L1335.57 214.768L1337.16 214.34L1336.8 212.941L1338.01 213.929Z" fill="white"/>
<path d="M278.977 8.68891L280.187 7.71777L279.822 9.10041L281.416 9.52837L279.822 9.93987L280.187 11.339L278.977 10.3678L277.749 11.339L278.133 9.93987L276.539 9.52837L278.133 9.10041L277.749 7.71777L278.977 8.68891Z" fill="white"/>
<path d="M894.217 45.0494L896.54 43.1895L895.83 45.8395L898.863 46.6461L895.83 47.4361L896.54 50.1027L894.217 48.2427L891.893 50.1027L892.604 47.4361L889.57 46.6461L892.604 45.8395L891.893 43.1895L894.217 45.0494Z" fill="white"/>
<path d="M718.998 50.316L721.321 48.4561L720.611 51.1061L723.644 51.9127L720.611 52.7027L721.321 55.3528L718.998 53.4928L716.675 55.3528L717.385 52.7027L714.352 51.9127L717.385 51.1061L716.675 48.4561L718.998 50.316Z" fill="white"/>
<path d="M1073.43 241.664L1077.06 238.767L1075.95 242.898L1080.67 244.149L1075.95 245.384L1077.06 249.515L1073.43 246.634L1069.82 249.515L1070.92 245.384L1066.2 244.149L1070.92 242.898L1069.82 238.767L1073.43 241.664Z" fill="white"/>
<path d="M37.0353 247.03L40.6641 244.149L39.5505 248.281L44.2737 249.515L39.5505 250.766L40.6641 254.898L37.0353 252.001L33.4065 254.898L34.5201 250.766L29.7969 249.515L34.5201 248.281L33.4065 244.149L37.0353 247.03Z" fill="white"/>
<path d="M234.875 145.291L238.484 142.41L237.39 146.542L242.113 147.776L237.39 149.027L238.484 153.159L234.875 150.262L231.246 153.159L232.36 149.027L227.617 147.776L232.36 146.542L231.246 142.41L234.875 145.291Z" fill="white"/>
<path d="M1439.06 739.439C1437.13 742.221 1418.01 773.548 1418.28 773.653C1409.45 770.637 1414.41 749.345 1414.6 743.136C1414.85 734.087 1410.73 717.455 1416.92 709.239C1401.07 730.366 1391.77 754.815 1384.35 777.597C1378.7 759.991 1374.12 738.535 1377.02 720.648C1373.82 740.343 1371.36 760.065 1369.65 779.815C1363.05 765.015 1356.1 750.378 1352.23 735.354C1350.08 727.138 1346.42 719.004 1343.75 710.847C1341.82 705.166 1334.21 693.558 1336.55 688.03C1327.24 709.92 1317.99 731.563 1310.06 753.665C1304.08 735.789 1302.45 717.49 1300.86 699.262C1295.27 723.379 1291.3 747.608 1288.98 771.951C1284.26 758.747 1278.14 745.683 1275.03 732.279C1274.47 748.535 1271.31 772.573 1255.42 786.189C1250.57 782.221 1247.51 777.045 1243.93 772.538L1231.52 783.207L1216.72 762.855L1196.36 789.229C1183.24 761.497 1171.63 733.523 1161.52 705.307C1150.05 734.239 1141.48 763.565 1135.86 793.125L1113.74 772.691C1107.72 777.245 1101.68 783.395 1093.98 786.646C1090.9 784.78 1076.16 765.214 1078.5 763.735C1068.66 770.419 1060.28 777.843 1053.57 785.825C1046.68 776.538 1041.07 766.919 1036.81 757.068L1024.97 782.55L1026.9 705.166C1021.1 723.03 1018.04 738.289 1006.49 755.367C1000.18 764.698 993.868 774.017 987.423 783.313L971.186 748.923C964.967 760.543 959.587 772.311 955.045 784.229C945.582 759.381 935.151 734.932 928.9 709.755C919.668 736.34 912.372 763.536 900.973 789.78C893.696 776.869 882.859 764.909 876.608 751.646C876.337 751.035 875.698 750.296 874.672 750.39C873.647 750.484 873.492 751.082 873.298 751.564C870.102 759.471 862.301 766.412 851.333 771.106C848.881 762.35 846.436 753.602 843.998 744.862C841.08 753.553 835.775 761.885 828.302 769.51C814.871 743.101 806.801 717.443 798.402 690.272C793.37 723.077 784.274 754.521 762.193 784.675C758.67 770.026 758.728 755.155 758.786 740.343C754.915 756.291 748.379 771.959 739.279 787.104C736.492 782.351 737.982 776.13 732.989 772.21C731.125 775.453 727.767 778.305 723.312 780.426C724.652 774.212 723.619 767.896 720.293 761.963C715.048 765.392 711.191 769.515 709.03 774.005C707.307 758.113 709.397 742.256 710.539 726.352C703.319 741.151 691.84 755.058 676.633 767.432L672.124 705.495L644.313 773.348C636.824 761.81 629.16 751.047 625.908 738.934C622.889 727.62 612.497 713.605 614.993 702.056C608.788 730.663 600.272 759.036 589.447 787.175C588.905 780.43 588.37 773.673 587.841 766.904C578.319 772.71 568.804 778.516 559.295 784.322C548.961 749.993 543.04 715.228 541.587 680.342C529.55 714.364 517.519 748.402 505.494 782.456C499.68 776.96 496.541 770.581 496.437 764.052C491.198 771.376 485.967 778.704 480.741 786.036C470.524 749.343 474.143 711.723 491.328 675.999C463.076 711.57 443.661 749.482 433.714 788.501C423.916 766.469 411.769 744.846 397.349 723.77C390.06 742.307 382.77 760.836 375.48 779.358C370.965 770.022 366.449 760.691 361.933 751.364C354.334 762.319 346.722 773.274 339.097 784.229C336.445 768.477 332.942 753.805 335.574 737.761C326.659 754.467 317.75 771.177 308.848 787.891C306.196 776.259 301.784 764.275 300.797 752.561C300.158 744.956 299.655 730.378 305.306 723.547C286.811 745.934 263.777 766.831 236.738 785.754C234.145 766.106 241.48 746.481 250.827 727.596C233.603 747.017 217.76 766.853 203.296 787.104C201.032 766.951 198.342 746.986 194.471 726.927C186.27 746.969 176.315 766.731 164.648 786.13L149.94 764.181C142.857 770.832 135.761 777.484 128.652 784.135C126.929 774.111 120.253 758.125 125.188 748.524C119.617 759.452 110.066 769.48 97.2418 777.867L89.6941 755.566C84.9123 762.04 79.0363 768.196 72.1603 773.935C72.0054 749.975 71.8635 726.016 71.7345 702.056C68.1335 717.839 62.8127 733.46 55.8069 748.817C49.7688 762.092 39.7052 772.749 31.5963 785.203C15.4752 771.517 9.10808 751.54 8.87584 735.049C2.69667 740.684 -2.93809 746.531 -8 752.561V816.999H1441V736.869C1440.34 737.725 1439.7 738.571 1439.06 739.439Z" fill="url(#paint0_linear_629_3)"/>
<path fill-rule="evenodd" clip-rule="evenodd" d="M334.17 693.771C331.905 691.414 329.133 689.562 326.812 687.289C317.906 678.449 314.558 665.75 309.225 654.399C304.4 644.156 298.294 634.755 288.417 629.142C278.541 623.529 267.468 620.372 256.312 618.267C251.57 617.369 245.943 615.994 244.339 611.462C243.312 608.572 244.339 605.429 245.169 602.482C247.547 593.923 247.462 578.937 245.563 576.944C243.664 574.952 237.6 584.185 235.067 587.44C232.203 587.017 229.297 586.946 226.415 587.23C222.602 584.886 220.534 575.752 216.116 575.008C213.922 574.657 213.443 585.756 213.303 587.973C211.769 606.874 216.51 608.74 217.523 618.59C218.452 627.22 218.185 633.955 220.97 642.163C223.163 649.133 227.128 655.417 232.479 660.404C233.468 669.155 232.615 678.015 229.975 686.419C229.581 687.654 228.933 689.071 227.653 689.323C226.612 689.534 220.126 689.913 221.603 694.347C222.363 696.648 227.949 696.339 230.368 696.143C234.322 695.82 234.589 693.575 236.432 690.081C238.275 686.587 239.035 682.63 240.09 678.856C240.774 676.1 241.895 673.471 243.41 671.068C243.977 673.936 243.808 676.899 242.918 679.684C241.399 685.03 241.708 688.313 238.036 692.494C236.699 693.996 232.141 695.301 232.099 697.335C232.099 700.296 235.264 702.078 238.233 701.952C245.057 701.671 246.674 700.338 248.349 693.729C250.023 687.12 253.301 676.007 258.07 671.138C261.321 679.68 267.455 686.825 275.417 691.344C272.308 692.2 269.086 690.783 265.893 690.306C262.699 689.828 258.591 691.077 258.211 694.276C258.188 695.313 258.483 696.332 259.056 697.197C259.629 698.062 260.454 698.732 261.419 699.117C263.364 699.841 265.438 700.156 267.511 700.043C277.992 700.156 299.701 700.745 310.041 699.286C317.625 698.205 314.037 695.792 320.959 692.494C324.237 691.863 327.374 695.104 327.388 698.43C327.27 700.093 326.712 701.696 325.77 703.073C324.828 704.451 323.537 705.556 322.028 706.273C318.981 707.657 315.682 708.402 312.335 708.462C296.071 709.669 274.672 707.396 268.383 706.68C262.094 705.965 262.98 710.258 264.415 711.704C265.959 713.04 267.818 713.963 269.818 714.384C288.466 719.681 308.294 719.148 326.629 712.854C331.764 711.072 337.49 707.887 337.968 702.485C338.264 699.216 336.449 696.115 334.17 693.771Z" fill="black"/>
<path fill-rule="evenodd" clip-rule="evenodd" d="M226 600.665C226 601.085 224.465 602 222.5 602C221.673 601.908 220.895 601.571 220.27 601.035C219.644 600.499 219.201 599.789 219 599C219.187 598.204 219.625 597.486 220.254 596.947C220.882 596.408 221.668 596.077 222.5 596C224.434 596.06 226 598.265 226 600.665Z" fill="#FFAA5F"/>
<path fill-rule="evenodd" clip-rule="evenodd" d="M225 599.07C224.986 599.463 224.857 599.842 224.629 600.162C224.401 600.481 224.084 600.727 223.717 600.867C223.351 601.008 222.951 601.038 222.568 600.953C222.184 600.868 221.834 600.672 221.562 600.39C221.289 600.107 221.105 599.751 221.034 599.365C220.962 598.979 221.005 598.581 221.159 598.219C221.312 597.858 221.568 597.55 221.896 597.333C222.223 597.116 222.607 597 222.999 597C223.539 597.011 224.052 597.235 224.426 597.623C224.801 598.011 225.007 598.531 225 599.07V599.07Z" fill="black"/>
<path fill-rule="evenodd" clip-rule="evenodd" d="M223.996 599.51C224.008 599.633 223.916 599.753 223.742 599.845C223.567 599.937 223.323 599.992 223.062 600C222.78 600 222.51 599.947 222.311 599.854C222.112 599.76 222 599.633 222 599.5C222 599.367 222.112 599.24 222.311 599.146C222.51 599.053 222.78 599 223.062 599C223.195 599.004 223.325 599.02 223.445 599.048C223.564 599.076 223.67 599.115 223.758 599.162C223.845 599.21 223.911 599.265 223.952 599.325C223.993 599.384 224.008 599.447 223.996 599.51V599.51Z" fill="white"/>
<path fill-rule="evenodd" clip-rule="evenodd" d="M232.918 600.278C232.855 600.703 233.82 602.135 235.557 602.861C236.331 603.08 237.154 603.054 237.917 602.786C238.68 602.518 239.349 602.02 239.834 601.358C239.963 600.538 239.838 599.7 239.477 598.961C239.115 598.222 238.535 597.619 237.819 597.239C236.082 596.514 233.858 597.935 232.918 600.278Z" fill="#FFAA5F"/>
<path fill-rule="evenodd" clip-rule="evenodd" d="M239 600.07C238.986 600.463 238.857 600.842 238.629 601.162C238.401 601.481 238.084 601.727 237.717 601.867C237.351 602.008 236.951 602.038 236.567 601.953C236.184 601.868 235.834 601.672 235.562 601.39C235.289 601.107 235.105 600.751 235.034 600.365C234.962 599.979 235.005 599.581 235.159 599.219C235.312 598.858 235.568 598.55 235.895 598.333C236.223 598.116 236.607 598 236.999 598C237.267 598.004 237.531 598.06 237.777 598.166C238.022 598.273 238.244 598.426 238.43 598.619C238.616 598.811 238.762 599.039 238.86 599.288C238.958 599.537 239.005 599.803 239 600.07V600.07Z" fill="black"/>
<path fill-rule="evenodd" clip-rule="evenodd" d="M237.999 600.557C237.977 600.653 237.9 600.743 237.777 600.817C237.655 600.892 237.492 600.947 237.308 600.976C237.123 601.006 236.926 601.008 236.74 600.983C236.554 600.957 236.386 600.906 236.257 600.834C236.128 600.762 236.043 600.674 236.012 600.579C235.982 600.483 236.008 600.386 236.086 600.298C236.164 600.21 236.291 600.135 236.453 600.082C236.614 600.029 236.803 600.001 236.996 600C237.276 600.009 237.538 600.072 237.726 600.176C237.913 600.28 238.011 600.417 237.999 600.557Z" fill="white"/>
<defs>
<linearGradient id="paint0_linear_629_3" x1="716.5" y1="675.999" x2="713.5" y2="788.499" gradientUnits="userSpaceOnUse">
<stop stop-color="#112D2B"/>
<stop offset="1" stop-color="#010F0E"/>
</linearGradient>
</defs>
</svg>
