<svg width="218" height="130" viewBox="0 0 218 130" fill="none" xmlns="http://www.w3.org/2000/svg">
<path fill-rule="evenodd" clip-rule="evenodd" d="M3.87742 13.5967C3.87742 13.5967 -0.490794 35.1269 0.0456536 40.2635C0.582101 45.4 10.3914 56.8743 10.3914 56.8743C10.3914 56.8743 20.7883 79.235 24.0836 90.1726C27.379 101.11 38.606 115.025 38.606 115.025C38.606 115.025 105.841 125.451 124.221 125.451C142.6 125.451 151.886 116.839 151.886 116.839C151.886 116.839 177.814 71.7729 180.088 69.5624C182.361 67.3519 195.287 62.6881 195.287 62.6881C195.287 62.6881 216.311 24.7132 217.971 14.7083L159.498 17.1233L3.87742 13.5967Z" fill="#03212B"/>
<path fill-rule="evenodd" clip-rule="evenodd" d="M3.87891 13.5969L31.506 10.1087L47.5611 7.38705C47.5611 7.38705 123.558 7.59149 145.425 8.84369C145.425 8.84369 163.638 1.48382 168.607 1.31771C173.575 1.1516 183.18 10.1087 183.18 10.1087L217.998 14.6575C217.998 14.6575 202.096 20.1902 189.899 19.9602L201.585 23.8957C199.373 25.5716 196.87 26.8236 194.203 27.5884C189.567 28.9939 154.736 30.0289 138.195 29.85C121.655 29.6711 114.425 23.8957 114.425 23.8957L121.872 21.0207L112.931 19.9602C112.931 19.9602 85.8916 24.6879 75.5586 25.0712C65.2256 25.4545 51.9804 22.8862 51.9804 22.8862L50.9841 19.3596C50.9841 19.3596 22.9739 17.7369 3.87891 13.5969Z" fill="#216B72"/>
<path fill-rule="evenodd" clip-rule="evenodd" d="M44.4798 18.8602V33.8866L29.2167 36.4421C29.2167 36.4421 28.5525 36.736 26.8665 41.0548C25.1805 45.3737 17.4148 56.0174 17.4148 56.0174L10.3516 56.7968L16.0098 69.4721C16.0098 69.4721 24.1715 69.5488 27.4157 71.5677C30.6599 73.5865 37.8509 79.6047 37.8509 79.6047L42.168 91.4368C42.168 91.4368 46.4852 69.5488 46.779 66.0989C47.0727 62.6489 51.2621 47.7886 50.6107 45.2842C49.9593 42.7798 50.8661 32.9922 50.8661 32.9922L52.0285 22.7702C52.0285 22.7702 74.125 25.7601 76.4368 26.6034C78.7487 27.4467 79.7449 36.6721 79.7449 36.6721L87.2679 54.0496L78.8253 79.4514L82.0951 100.969L83.1296 117.145L95.1231 129.999H104.626C104.626 129.999 112.392 87.9613 112.966 85.3674C113.541 82.7736 110.923 76.7426 110.923 76.7426L114.755 50.3186L114.384 23.8435L121.869 21.0196L112.928 19.9591C112.928 19.9591 84.8284 24.1629 80.2047 24.5973C75.5811 25.0318 51.9646 20.6746 51.9646 20.6746L66.1293 17.2119L44.4798 18.8602Z" fill="url(#paint0_linear_452_2794)"/>
<path fill-rule="evenodd" clip-rule="evenodd" d="M165.708 29.8627L184.637 33.0315L181.622 40.2636L173.41 60.0944L163.511 69.5115L152.399 73.6258L143.777 79.6441H151.249L150.674 87.6556L146.664 106.822L146.46 120.341L151.569 119.651C151.569 119.651 171.826 82.9279 180.115 69.4859C180.115 69.4859 193.884 65.231 195.315 62.6116C196.745 59.9922 216.211 23.6017 217.999 14.6318L189.899 19.9345L201.586 23.87C201.586 23.87 193.36 27.5244 187.894 28.3933C182.427 29.2621 165.708 29.8627 165.708 29.8627Z" fill="url(#paint1_linear_452_2794)"/>
<path fill-rule="evenodd" clip-rule="evenodd" d="M145.423 8.84307L139.305 11.8586C139.305 11.8586 143.775 12.868 146.355 13.5963C148.935 14.3246 163.164 13.1619 165.706 12.4336C168.247 11.7052 177.584 8.84307 177.584 8.84307L178.082 5.91701C178.082 5.91701 171.108 -0.331216 169.001 0.0137783C166.893 0.358772 149.114 7.02865 145.423 8.84307Z" fill="#439CA5"/>
<path fill-rule="evenodd" clip-rule="evenodd" d="M184.009 10.223L178.07 13.5963L168.797 13.8135H149.051C149.051 13.8135 164.25 12.5358 166.524 12.0247C168.797 11.5136 177.585 8.84306 177.585 8.84306L178.083 5.91699L184.009 10.223Z" fill="url(#paint2_linear_452_2794)"/>
<path fill-rule="evenodd" clip-rule="evenodd" d="M44.4805 33.8878L50.854 48.8631L51.9525 20.6502L66.13 17.1875L44.4805 18.8614V33.8878Z" fill="url(#paint3_linear_452_2794)"/>
<path fill-rule="evenodd" clip-rule="evenodd" d="M189.809 19.9599L201.496 23.8954L196.386 60.4903C196.386 60.4903 212.097 30.5397 217.908 14.6572L189.809 19.9599Z" fill="url(#paint4_linear_452_2794)"/>
<path fill-rule="evenodd" clip-rule="evenodd" d="M80.2383 24.5982L95.1184 39.0369L104.327 48.8628L106.205 57.2577L114.456 51.9933L114.315 23.8955L121.902 21.0205L112.962 19.96L80.2383 24.5982Z" fill="url(#paint5_linear_452_2794)"/>
<defs>
<linearGradient id="paint0_linear_452_2794" x1="10.3516" y1="73.6248" x2="121.907" y2="73.6248" gradientUnits="userSpaceOnUse">
<stop stop-color="#00101C"/>
<stop offset="0.04" stop-color="#001D22"/>
<stop offset="0.42" stop-color="#001D28"/>
<stop offset="1" stop-color="#040021"/>
<stop offset="1" stop-color="#010D1B"/>
</linearGradient>
<linearGradient id="paint1_linear_452_2794" x1="143.777" y1="67.5182" x2="217.973" y2="67.5182" gradientUnits="userSpaceOnUse">
<stop stop-color="#010D1B"/>
<stop offset="0.04" stop-color="#00081A"/>
<stop offset="0.42" stop-color="#01101D"/>
<stop offset="1" stop-color="#051B40"/>
</linearGradient>
<linearGradient id="paint2_linear_452_2794" x1="149.051" y1="9.86526" x2="184.009" y2="9.86526" gradientUnits="userSpaceOnUse">
<stop stop-color="#003838"/>
<stop offset="1" stop-color="#092B33"/>
</linearGradient>
<linearGradient id="paint3_linear_452_2794" x1="55.2988" y1="48.8631" x2="55.2988" y2="17.1875" gradientUnits="userSpaceOnUse">
<stop stop-color="#03212B"/>
<stop offset="1" stop-color="#01232B"/>
</linearGradient>
<linearGradient id="paint4_linear_452_2794" x1="203.884" y1="60.4903" x2="203.884" y2="14.6572" gradientUnits="userSpaceOnUse">
<stop stop-color="#001C25"/>
<stop offset="1" stop-color="#021725"/>
</linearGradient>
<linearGradient id="paint5_linear_452_2794" x1="101.07" y1="57.2577" x2="101.07" y2="19.96" gradientUnits="userSpaceOnUse">
<stop stop-color="#073540"/>
<stop offset="1" stop-color="#012129"/>
</linearGradient>
</defs>
</svg>
